<?xml version="1.0" standalone="no"?>
<!DOCTYPE svg PUBLIC "-//W3C//DTD SVG 20010904//EN"
 "http://www.w3.org/TR/2001/REC-SVG-20010904/DTD/svg10.dtd">
<svg version="1.0" xmlns="http://www.w3.org/2000/svg"
 width="3194.000000pt" height="1344.000000pt" viewBox="0 0 3194.000000 1344.000000"
 preserveAspectRatio="xMidYMid meet">
<metadata>
Created by potrace 1.16, written by Peter Selinger 2001-2019
</metadata>
<defs>
  <linearGradient id="grad_seu_cer" x1="0%" y1="0%" x2="0%" y2="100%">
    <stop offset="0%" style="stop-color:#3B82F6;stop-opacity:1" />
    <stop offset="100%" style="stop-color:#2563EB;stop-opacity:1" />
  </linearGradient>
</defs>
<g transform="translate(0.000000,1344.000000) scale(0.100000,-0.100000)" fill="url(#grad_seu_cer)" stroke="none">
<path d="M9005 12644 c-356 -67 -719 -317 -941 -650 -160 -240 -238 -483 -237
-734 2 -374 195 -645 530 -742 66 -20 101 -23 233 -23 136 0 168 4 261 28 270
70 475 191 679 403 150 155 256 331 326 540 131 391 81 755 -136 987 -79 84
-163 137 -275 173 -102 33 -314 42 -440 18z"/>
<path d="M12999 12122 c-75 -28 -150 -76 -229 -147 -252 -227 -385 -332 -660
-522 -995 -686 -1979 -1140 -2815 -1298 -319 -60 -424 -69 -805 -70 -323 0
-368 2 -500 23 -544 87 -987 231 -1515 492 -693 344 -1203 726 -1755 1315
-134 143 -238 199 -365 198 -142 -1 -238 -74 -279 -213 -80 -268 152 -670 724
-1254 274 -281 587 -550 1060 -912 386 -295 564 -519 674 -846 58 -174 70
-264 71 -508 0 -239 -9 -315 -90 -730 -123 -631 -152 -916 -142 -1375 19 -835
264 -1588 729 -2237 330 -461 786 -882 1243 -1146 99 -57 388 -202 403 -202 3
0 -14 17 -39 37 -162 136 -438 433 -593 640 -159 213 -335 509 -400 673 -168
428 -236 766 -236 1175 1 608 182 1222 537 1815 97 163 210 321 376 529 163
203 211 256 431 477 409 409 837 736 1676 1279 174 112 917 609 1055 705 318
220 729 538 970 749 152 133 482 463 562 561 81 101 147 204 196 308 38 82 41
93 45 198 5 121 -4 163 -46 226 -34 52 -92 78 -173 77 -35 0 -84 -8 -110 -17z"/>
<path d="M15790 10555 c-113 -22 -199 -50 -297 -99 -263 -132 -414 -369 -415
-652 -1 -177 45 -310 143 -418 123 -135 284 -209 669 -307 233 -60 418 -120
479 -156 63 -37 129 -100 154 -148 30 -57 31 -181 0 -247 -41 -90 -146 -166
-279 -203 -79 -22 -306 -31 -416 -16 -229 31 -437 120 -611 264 l-47 39 -16
-38 c-9 -21 -44 -100 -79 -176 l-63 -138 42 -34 c157 -128 388 -229 621 -272
126 -23 505 -27 600 -6 230 51 375 123 494 245 103 105 152 198 182 342 50
239 -6 454 -155 600 -134 131 -271 191 -678 296 -150 38 -297 78 -326 89 -222
83 -314 190 -298 348 21 201 208 326 507 339 252 11 462 -45 685 -181 l41 -25
68 176 c54 140 64 177 54 184 -109 70 -297 145 -454 181 -118 27 -488 35 -605
13z"/>
<path d="M17360 9260 l0 -1280 900 0 900 0 0 185 0 185 -695 0 -695 0 0 380 0
380 600 0 600 0 0 180 0 180 -600 0 -600 0 0 350 0 350 670 0 670 0 0 185 0
185 -875 0 -875 0 0 -1280z"/>
<path d="M19590 9730 c0 -878 2 -910 56 -1104 89 -316 340 -558 664 -640 249
-63 523 -55 754 24 279 94 484 304 575 590 64 202 71 307 71 1198 l0 742 -205
0 -205 0 0 -717 c0 -395 -5 -770 -10 -833 -29 -344 -160 -544 -413 -626 -71
-23 -100 -27 -217 -27 -149 -1 -235 15 -324 59 -155 78 -251 205 -308 409 -22
80 -22 85 -26 908 l-3 827 -204 0 -205 0 0 -810z"/>
<path d="M9080 7964 c-84 -69 -272 -257 -369 -369 -339 -391 -648 -925 -809
-1400 -185 -541 -221 -1162 -98 -1668 125 -515 415 -1011 823 -1407 492 -479
1129 -828 1894 -1039 567 -156 986 -213 1544 -210 525 3 988 67 1470 204 740
211 1301 527 1837 1036 180 172 255 300 273 471 32 300 -251 565 -552 518
-123 -20 -157 -42 -361 -242 -268 -261 -458 -400 -767 -559 -296 -153 -581
-249 -898 -305 -127 -22 -193 -27 -399 -31 -155 -4 -295 -1 -375 6 -1122 105
-2076 593 -2737 1401 -288 353 -487 713 -620 1125 -130 404 -181 845 -141
1225 39 379 105 641 289 1135 30 82 54 150 53 151 -1 2 -27 -18 -57 -42z"/>
<path d="M13196 7539 c-189 -19 -451 -79 -631 -144 -129 -47 -355 -156 -470
-227 -518 -322 -891 -832 -1041 -1420 -54 -214 -68 -342 -69 -623 0 -264 3
-294 47 -509 55 -274 163 -528 327 -772 160 -240 401 -473 583 -565 119 -60
383 -99 673 -99 416 0 768 80 1115 253 l165 82 -165 6 c-233 9 -380 36 -602
110 -514 170 -882 555 -1014 1057 -56 216 -74 493 -45 691 83 561 432 1003
935 1180 234 83 492 107 751 70 320 -45 647 -216 920 -481 l110 -106 50 46
c28 26 115 108 195 182 132 124 228 213 383 360 l58 55 -59 70 c-242 285 -660
555 -1047 676 -275 85 -450 111 -805 114 -151 2 -315 -1 -364 -6z"/>
<path d="M16180 4970 l0 -2400 1741 3 1742 2 1 442 1 443 -1222 0 -1223 0 0
38 c0 20 -1 276 -2 567 l-2 530 1027 3 1027 2 0 430 0 430 -1027 2 -1026 3 -2
512 -1 513 1181 2 1180 3 2 438 1 437 -1699 0 -1699 0 0 -2400z"/>
<path d="M20440 4971 l0 -2401 515 1 515 0 2 702 3 702 458 3 c252 1 465 -1
472 -5 8 -5 53 -74 102 -154 48 -80 243 -393 433 -696 l344 -551 564 0 c500 0
563 2 558 15 -6 15 -507 820 -827 1330 -88 139 -159 257 -159 262 0 6 24 22
53 37 159 80 288 176 415 308 177 185 279 364 353 619 46 159 60 259 66 464 6
203 -3 317 -38 478 -139 641 -615 1085 -1319 1229 -240 49 -236 49 -1402 53
l-1108 4 0 -2400z m2222 1482 c254 -72 405 -184 492 -366 63 -132 77 -196 83
-378 7 -195 -9 -284 -72 -414 -93 -194 -278 -340 -500 -394 -137 -34 -259 -41
-730 -41 l-455 0 -1 48 c-1 26 -2 390 -4 810 l-3 763 557 -3 c535 -4 559 -4
633 -25z"/>
</g>
</svg>
